<?xml version="1.0" encoding="UTF-8"?>
<svg version="1.1" viewBox="0 0 819 819" width="819" height="819" xmlns="http://www.w3.org/2000/svg">
<path transform="translate(467,339)" d="m0 0 7 4 21 16 6 4 5-2 11-9 6-3 10 16 16 26 10 16 4-1 12-13 1-2 3 1 15 28 13 23 4 8-1 2-12-13-9-11-10-11-13 15-6 7-4-2-15-24-13-21-6-9-4 2-11 9h-3l-5-4-5 1-21 16-6 3-9-12 1-4 14-10 11-9 1-2-17-13-10-8 1-4 7-9z" fill="#030303"/>
<path transform="translate(341,341)" d="m0 0 5 1 7 9-1 4-12 10-10 8h-2l6 7 13 10 6 5-2 5-7 9-4-1-18-14-4-2-6 5-3-1-7-9-6-4-2 5-12 19-16 26-5 7-4-2-14-15-4-4-7 7-9 11-10 11-5 6-1-2 14-26 10-18 8-14 3-2 16 16 4-5 12-19 21-35 4 2 12 10 5-1 15-12z" fill="#030303"/>
<path transform="translate(447,297)" d="m0 0h16l-2 9-15 39-20 51-16 41-2 4h-16l2-9 16-41 18-46z" fill="#020202"/>
<path transform="translate(399,318)" d="m0 0h16l-1 5-15 39-38 95-7 2h-8l-2-1 3-10 14-36 12-30 19-48 6-15z" fill="#030303"/>
<path transform="translate(360,477)" d="m0 0h7l12 15 10 13 1 3h2v-31h7v45h-7l-11-13-10-13-2-2-1 28h-8z" fill="#030303"/>
<path transform="translate(528,477)" d="m0 0h30l5 4 1 2v33l-4 5-2 1h-31l-5-4-2-7v-25l3-6zm9 6-7 1-2 2v27l5 3h19l5-3 1-6v-20l-3-3-5-1z" fill="#080808"/>
<path transform="translate(580,477)" d="m0 0h33l5 3 3 7v27l-4 6-3 2h-34zm7 6v33h21l5-2 1-3v-24l-3-3-13-1z" fill="#020202"/>
<path transform="translate(414,477)" d="m0 0h33l6 4 1 2 1 32-5 6-2 1h-34zm22 6-14 1-1 6v24l3 2h18l5-3 1-3v-21l-3-5z" fill="#060606"/>
<path transform="translate(310,477)" d="m0 0h36v6l-10 1h-19v12h22v7h-22v13h29v6h-36z" fill="#020202"/>
<path transform="translate(636,477)" d="m0 0h36v6h-29v13h22v7h-22v13h29v6h-36z" fill="#020202"/>
<path transform="translate(239,476)" d="m0 0 3 1v6l-20 1-7 1-1 1v7l2 2 15 1 7 2 4 5v13l-4 5-2 1h-30v-6h27l1-3v-7l-5-2-13-1-7-3-3-4v-13l4-5 3-1z" fill="#030303"/>
<path transform="translate(476,477)" d="m0 0h31v7h-25l-6 2 1 25 1 3 4 1 25 1v6h-32l-5-4-1-3v-31l3-5z" fill="#040404"/>
<path transform="translate(168,476)" d="m0 0h7l19 44v2h-8l-13-30v-3h-2l-2 6-13 28h-7l1-5 15-35z" fill="#040404"/>
<path transform="translate(263,477)" d="m0 0h32v6h-29l-2 6v22l2 3 3 1 26 1v6h-32l-5-4-2-7v-23l3-9z" fill="#040404"/>
<path transform="translate(206,454)" d="m0 0" fill="#FEFEFE"/>
<path transform="translate(611,453)" d="m0 0" fill="#020202"/>
</svg>
